<mxfile host="Electron" modified="2023-05-11T07:15:49.420Z" agent="Mozilla/5.0 (Windows NT 10.0; Win64; x64) AppleWebKit/537.36 (KHTML, like Gecko) draw.io/21.2.8 Chrome/112.0.5615.165 Electron/24.2.0 Safari/537.36" etag="lViL2_3OoIEHBB74uxpT" version="21.2.8" type="device">
  <diagram name="Page-1" id="SFD5FbLWe2inRmjffrm_">
    <mxGraphModel dx="1182" dy="683" grid="1" gridSize="10" guides="1" tooltips="1" connect="1" arrows="1" fold="1" page="1" pageScale="1" pageWidth="850" pageHeight="1100" math="0" shadow="0">
      <root>
        <mxCell id="0" />
        <mxCell id="1" parent="0" />
        <mxCell id="dXeJd9fdskiibIoUs9Um-12" value="&lt;font style=&quot;&quot;&gt;&lt;i style=&quot;font-size: 13px;&quot;&gt;&amp;lt;&amp;lt;HttpServlet&amp;gt;&amp;gt;&lt;/i&gt;&lt;br&gt;&lt;span style=&quot;font-size: 15px;&quot;&gt;&lt;b&gt;doLogin&lt;/b&gt;&lt;/span&gt;&lt;br&gt;&lt;/font&gt;" style="shape=parallelogram;perimeter=parallelogramPerimeter;whiteSpace=wrap;html=1;fixedSize=1;strokeColor=#FF00FF;strokeWidth=2;" parent="1" vertex="1">
          <mxGeometry x="480" y="504" width="140" height="60" as="geometry" />
        </mxCell>
        <mxCell id="dXeJd9fdskiibIoUs9Um-21" value="" style="group" parent="1" vertex="1" connectable="0">
          <mxGeometry x="720" y="490" width="150" height="100" as="geometry" />
        </mxCell>
        <mxCell id="dXeJd9fdskiibIoUs9Um-19" value="" style="whiteSpace=wrap;html=1;strokeWidth=3;strokeColor=#009900;" parent="dXeJd9fdskiibIoUs9Um-21" vertex="1">
          <mxGeometry width="150" height="100" as="geometry" />
        </mxCell>
        <mxCell id="dXeJd9fdskiibIoUs9Um-20" value="&lt;font size=&quot;1&quot; color=&quot;#009900&quot; style=&quot;&quot;&gt;&lt;b style=&quot;font-size: 20px;&quot;&gt;&lt;i&gt;home.html&lt;/i&gt;&lt;/b&gt;&lt;/font&gt;" style="text;html=1;strokeColor=none;fillColor=none;align=left;verticalAlign=middle;whiteSpace=wrap;rounded=0;" parent="dXeJd9fdskiibIoUs9Um-21" vertex="1">
          <mxGeometry x="5" y="5" width="60" height="30" as="geometry" />
        </mxCell>
        <mxCell id="dXeJd9fdskiibIoUs9Um-22" value="" style="endArrow=none;html=1;rounded=0;strokeColor=#6666FF;strokeWidth=2;startArrow=classic;startFill=1;entryX=1;entryY=0.5;entryDx=0;entryDy=0;exitX=0.071;exitY=0.544;exitDx=0;exitDy=0;exitPerimeter=0;" parent="1" edge="1">
          <mxGeometry width="50" height="50" relative="1" as="geometry">
            <mxPoint x="719.94" y="539.6400000000001" as="sourcePoint" />
            <mxPoint x="610" y="539.6600000000001" as="targetPoint" />
          </mxGeometry>
        </mxCell>
        <mxCell id="dXeJd9fdskiibIoUs9Um-32" value="&lt;i&gt;POST&lt;br&gt;&lt;/i&gt;username, password" style="rounded=0;whiteSpace=wrap;html=1;" parent="1" vertex="1">
          <mxGeometry x="425" y="450" width="125" height="40" as="geometry" />
        </mxCell>
        <mxCell id="dXeJd9fdskiibIoUs9Um-34" value="" style="endArrow=classic;html=1;rounded=0;exitX=0.5;exitY=1;exitDx=0;exitDy=0;" parent="1" source="dXeJd9fdskiibIoUs9Um-32" edge="1">
          <mxGeometry width="50" height="50" relative="1" as="geometry">
            <mxPoint x="510" y="570" as="sourcePoint" />
            <mxPoint x="430" y="530" as="targetPoint" />
          </mxGeometry>
        </mxCell>
        <mxCell id="dXeJd9fdskiibIoUs9Um-1" value="" style="whiteSpace=wrap;html=1;strokeWidth=3;strokeColor=#009900;movable=1;resizable=1;rotatable=1;deletable=1;editable=1;locked=0;connectable=1;" parent="1" vertex="1">
          <mxGeometry x="100" y="400" width="310" height="200" as="geometry" />
        </mxCell>
        <mxCell id="dXeJd9fdskiibIoUs9Um-2" value="&lt;font color=&quot;#009900&quot;&gt;&lt;span style=&quot;font-size: 20px;&quot;&gt;&lt;b&gt;&lt;i&gt;index.html&lt;/i&gt;&lt;/b&gt;&lt;/span&gt;&lt;/font&gt;" style="text;html=1;strokeColor=none;fillColor=none;align=left;verticalAlign=middle;whiteSpace=wrap;rounded=0;" parent="1" vertex="1">
          <mxGeometry x="112.4" y="400" width="62.00000000000001" height="30" as="geometry" />
        </mxCell>
        <mxCell id="dXeJd9fdskiibIoUs9Um-3" value="&lt;font style=&quot;&quot;&gt;&lt;i&gt;&lt;font style=&quot;font-size: 13px;&quot;&gt;&amp;lt;&amp;lt;form href=&quot;#&quot;&amp;gt;&amp;gt;&lt;/font&gt;&lt;/i&gt;&lt;br&gt;&lt;span style=&quot;font-size: 15px;&quot;&gt;&lt;b&gt;Login form&lt;br&gt;&lt;/b&gt;&lt;/span&gt;&lt;br&gt;[&lt;i&gt;field:&lt;/i&gt;&amp;nbsp;Username]&lt;br&gt;[&lt;i style=&quot;border-color: var(--border-color);&quot;&gt;field:&lt;/i&gt;&amp;nbsp;Password]&lt;br&gt;&lt;/font&gt;" style="rounded=1;whiteSpace=wrap;html=1;strokeWidth=3;strokeColor=#FF8000;" parent="1" vertex="1">
          <mxGeometry x="159.42" y="440" width="210.58" height="127" as="geometry" />
        </mxCell>
        <mxCell id="T3EsUtSMvEaVMbdLduOL-2" value="" style="endArrow=none;html=1;rounded=0;strokeColor=#6666FF;strokeWidth=2;startArrow=classic;startFill=1;" parent="1" target="dXeJd9fdskiibIoUs9Um-6" edge="1">
          <mxGeometry width="50" height="50" relative="1" as="geometry">
            <mxPoint x="489.8873706864413" y="531.3378879406762" as="sourcePoint" />
            <mxPoint x="360" y="537" as="targetPoint" />
          </mxGeometry>
        </mxCell>
        <mxCell id="dXeJd9fdskiibIoUs9Um-6" value="" style="ellipse;whiteSpace=wrap;html=1;aspect=fixed;strokeWidth=2;fillColor=#6666FF;strokeColor=#6666FF;" parent="1" vertex="1">
          <mxGeometry x="360" y="522" width="20" height="20" as="geometry" />
        </mxCell>
        <mxCell id="pwgJWhNm3POkZaTjNPh8-4" value="if login&lt;br&gt;successful" style="text;html=1;strokeColor=none;fillColor=none;align=center;verticalAlign=middle;whiteSpace=wrap;rounded=0;" parent="1" vertex="1">
          <mxGeometry x="630" y="542" width="60" height="30" as="geometry" />
        </mxCell>
        <mxCell id="pwgJWhNm3POkZaTjNPh8-5" value="" style="endArrow=none;html=1;rounded=0;strokeColor=#6666FF;strokeWidth=2;startArrow=classic;startFill=1;entryX=0.5;entryY=1;entryDx=0;entryDy=0;exitX=0.839;exitY=1;exitDx=0;exitDy=0;exitPerimeter=0;" parent="1" source="dXeJd9fdskiibIoUs9Um-1" target="dXeJd9fdskiibIoUs9Um-12" edge="1">
          <mxGeometry width="50" height="50" relative="1" as="geometry">
            <mxPoint x="360" y="610" as="sourcePoint" />
            <mxPoint x="520" y="650.0000000000001" as="targetPoint" />
            <Array as="points">
              <mxPoint x="360" y="640" />
              <mxPoint x="550" y="640" />
            </Array>
          </mxGeometry>
        </mxCell>
        <mxCell id="pwgJWhNm3POkZaTjNPh8-6" value="if login&lt;br&gt;unsuccessful" style="text;html=1;strokeColor=none;fillColor=none;align=center;verticalAlign=middle;whiteSpace=wrap;rounded=0;" parent="1" vertex="1">
          <mxGeometry x="430" y="610" width="60" height="30" as="geometry" />
        </mxCell>
      </root>
    </mxGraphModel>
  </diagram>
</mxfile>
